<svg width="220" height="220" viewBox="0 0 220 220" fill="none" xmlns="http://www.w3.org/2000/svg">
  <g fill="#E53935" fill-opacity="0.08">
    <circle cx="10" cy="10" r="2"/>
    <circle cx="60" cy="10" r="2"/>
    <circle cx="110" cy="10" r="2"/>
    <circle cx="160" cy="10" r="2"/>
    <circle cx="210" cy="10" r="2"/>

    <circle cx="10" cy="60" r="2"/>
    <circle cx="60" cy="60" r="2"/>
    <circle cx="110" cy="60" r="2"/>
    <circle cx="160" cy="60" r="2"/>
    <circle cx="210" cy="60" r="2"/>

    <circle cx="10" cy="110" r="2"/>
    <circle cx="60" cy="110" r="2"/>
    <circle cx="110" cy="110" r="2"/>
    <circle cx="160" cy="110" r="2"/>
    <circle cx="210" cy="110" r="2"/>

    <circle cx="10" cy="160" r="2"/>
    <circle cx="60" cy="160" r="2"/>
    <circle cx="110" cy="160" r="2"/>
    <circle cx="160" cy="160" r="2"/>
    <circle cx="210" cy="160" r="2"/>

    <circle cx="10" cy="210" r="2"/>
    <circle cx="60" cy="210" r="2"/>
    <circle cx="110" cy="210" r="2"/>
    <circle cx="160" cy="210" r="2"/>
    <circle cx="210" cy="210" r="2"/>
  </g>
</svg>
